<?xml version="1.0" encoding="UTF-8"?><svg id="Ebene_2" xmlns="http://www.w3.org/2000/svg" xmlns:xlink="http://www.w3.org/1999/xlink" viewBox="0 0 228 202.92"><defs><clipPath id="clippath"><rect width="228" height="202.92" style="fill:none; stroke-width:0px;"/></clipPath><clipPath id="clippath-1"><rect width="228" height="202.92" style="fill:none; stroke-width:0px;"/></clipPath></defs><g id="Ebene_1-2"><g id="Logo_mit_Text"><g style="clip-path:url(#clippath);"><path d="m94.65,64.81l19.35-14.13,19.35,14.13v56.73h-38.7v-56.73ZM151.81,0l-37.81,27.61L76.19,0,.4,55.35v84.82h43.97v-18.63h-25.34v-56.73l57.16-41.75,22.02,16.08-22.18,16.2v84.82h75.95V55.35l-22.18-16.2,22.02-16.08,57.16,41.75v56.73h-27.45v18.63h46.07V55.35L151.81,0Z" style="fill:#181c21; stroke-width:0px;"/><g style="clip-path:url(#clippath-1);"><path d="m9.96,193.15h-3.81v9.06H0v-25.24h9.96c6.18,0,9.28,3.49,9.28,8.12,0,4.17-2.84,8.05-9.28,8.05m-.47-4.89c2.45,0,3.49-1.22,3.49-3.16s-1.04-3.17-3.49-3.17h-3.34v6.33h3.34Z" style="stroke-width:0px;"/><path d="m39.96,197.75h-9.42l-1.51,4.46h-6.44l9.13-25.24h7.12l9.13,25.24h-6.51l-1.51-4.46Zm-4.71-13.99l-3.09,9.24h6.22l-3.13-9.24Z" style="stroke-width:0px;"/><path d="m52.45,176.97h6.15v15.1c0,2.98,1.47,4.71,4.39,4.71s4.46-1.73,4.46-4.71v-15.1h6.15v15.06c0,6.98-4.89,10.43-10.72,10.43s-10.43-3.45-10.43-10.43v-15.06Z" style="stroke-width:0px;"/><polygon points="85.87 191.06 85.87 202.21 79.72 202.21 79.72 176.97 85.87 176.97 85.87 188.04 94.28 176.97 101.51 176.97 91.73 189.33 101.87 202.21 94.36 202.21 85.87 191.06" style="stroke-width:0px;"/><path d="m115.73,202.46c-5.43,0-9.67-2.7-9.85-7.8h6.54c.18,1.94,1.4,2.87,3.13,2.87s2.95-.9,2.95-2.37c0-4.67-12.62-2.16-12.55-11.11,0-4.78,3.92-7.44,9.21-7.44s9.21,2.73,9.46,7.55h-6.65c-.11-1.62-1.26-2.59-2.91-2.63-1.48-.03-2.59.72-2.59,2.3,0,4.39,12.47,2.41,12.47,10.86,0,4.24-3.31,7.77-9.2,7.77" style="stroke-width:0px;"/><polygon points="129.15 176.97 148.68 176.97 148.68 181.89 141.99 181.89 141.99 202.21 135.84 202.21 135.84 181.89 129.15 181.89 129.15 176.97" style="stroke-width:0px;"/><path d="m169.29,197.75h-9.42l-1.51,4.46h-6.44l9.13-25.24h7.12l9.13,25.24h-6.51l-1.51-4.46Zm-4.71-13.99l-3.09,9.24h6.22l-3.13-9.24Z" style="stroke-width:0px;"/><path d="m204.58,189.59c0,7.48-5.18,12.62-13.23,12.62h-9.46v-25.24h9.46c8.05,0,13.23,5.1,13.23,12.62m-13.63,7.3c4.64,0,7.37-2.66,7.37-7.3s-2.73-7.37-7.37-7.37h-2.91v14.67h2.91Z" style="stroke-width:0px;"/><polygon points="208.48 176.97 228 176.97 228 181.89 221.31 181.89 221.31 202.21 215.16 202.21 215.16 181.89 208.48 181.89 208.48 176.97" style="stroke-width:0px;"/><path d="m33.96,164.79h-4.35v-12.57h4.23c2.64,0,3.9,1.4,3.9,3.16,0,1.65-1.04,2.57-2.25,2.91,1.4.25,2.53,1.55,2.53,3.13,0,1.89-1.42,3.36-4.06,3.36m-.22-11.51h-2.88v4.49h2.93c1.71,0,2.66-.86,2.66-2.27s-.9-2.23-2.72-2.23m.07,5.54h-2.95v4.91h3c1.82,0,2.89-.92,2.89-2.43s-1.15-2.48-2.95-2.48" style="stroke-width:0px;"/><path d="m51.22,161.81h-5.72l-1.1,2.98h-1.33l4.59-12.4h1.42l4.57,12.4h-1.33l-1.1-2.98Zm-2.86-7.84l-2.48,6.8h4.96l-2.48-6.8Z" style="stroke-width:0px;"/><path d="m59.22,152.23h1.26v7.91c0,2.6,1.37,3.66,3.33,3.66s3.29-1.06,3.29-3.66v-7.91h1.26v7.89c0,3.33-2.01,4.8-4.57,4.8s-4.57-1.48-4.57-4.8v-7.89Z" style="stroke-width:0px;"/><path d="m78.57,164.92c-2.52,0-4.17-1.44-4.24-3.36h1.33c.11,1.04.88,2.3,2.91,2.3,1.74,0,2.77-1.03,2.77-2.32,0-3.7-6.9-1.37-6.9-6.1,0-1.94,1.6-3.36,4.03-3.36s3.83,1.33,4.05,3.05h-1.37c-.14-.88-.99-1.96-2.73-1.98-1.47-.02-2.7.79-2.7,2.25,0,3.63,6.9,1.4,6.9,6.08,0,1.71-1.38,3.43-4.04,3.43" style="stroke-width:0px;"/><path d="m95.92,161.81h-5.72l-1.1,2.98h-1.33l4.58-12.4h1.42l4.57,12.4h-1.33l-1.1-2.98Zm-2.86-7.84l-2.48,6.8h4.96l-2.48-6.8Z" style="stroke-width:0px;"/><polygon points="113.44 152.23 113.44 164.79 112.19 164.79 105.23 154.22 105.23 164.79 103.97 164.79 103.97 152.23 105.23 152.23 112.19 162.78 112.19 152.23 113.44 152.23" style="stroke-width:0px;"/><rect x="119.91" y="152.23" width="1.26" height="12.57" style="stroke-width:0px;"/><polygon points="134.18 153.25 128.88 153.25 128.88 157.94 133.65 157.94 133.65 158.99 128.88 158.99 128.88 163.75 134.18 163.75 134.18 164.79 127.62 164.79 127.62 152.21 134.18 152.21 134.18 153.25" style="stroke-width:0px;"/><path d="m144.04,152.23c2.91,0,4.28,1.58,4.28,3.65,0,1.73-.97,3.18-3.09,3.58l3.24,5.34h-1.51l-3.11-5.25h-2.32v5.25h-1.26v-12.57h3.78Zm0,1.06h-2.52v5.23h2.54c2.05,0,2.96-1.12,2.96-2.64s-.86-2.59-2.98-2.59" style="stroke-width:0px;"/><path d="m154.37,152.23h1.26v7.91c0,2.6,1.36,3.66,3.33,3.66s3.29-1.06,3.29-3.66v-7.91h1.26v7.89c0,3.33-2.01,4.8-4.57,4.8s-4.57-1.48-4.57-4.8v-7.89Z" style="stroke-width:0px;"/><polygon points="179.39 152.23 179.39 164.79 178.13 164.79 171.17 154.22 171.17 164.79 169.91 164.79 169.91 152.23 171.17 152.23 178.13 162.78 178.13 152.23 179.39 152.23" style="stroke-width:0px;"/><path d="m197.21,155.89h-1.47c-.7-1.62-2.23-2.66-4.24-2.66-2.78,0-4.92,2.01-4.92,5.27s2.14,5.28,4.92,5.28,4.58-1.78,4.78-4.64h-5.29v-1.02h6.62v.92c-.2,3.33-2.68,5.88-6.11,5.88s-6.22-2.64-6.22-6.42,2.7-6.42,6.22-6.42c2.7,0,4.82,1.42,5.72,3.81" style="stroke-width:0px;"/></g></g></g></g></svg>