<?xml version="1.0" encoding="UTF-8"?><svg id="Ebene_2" xmlns="http://www.w3.org/2000/svg" width="680" height="141.37" viewBox="0 0 680 141.37"><g id="Ebene_1-2"><path d="M31.95,113.69h-11.33v26.93H2.35v-75.02h29.6c18.38,0,27.57,10.36,27.57,24.15,0,12.4-8.44,23.94-27.57,23.94ZM30.56,99.16c7.27,0,10.37-3.64,10.37-9.41s-3.1-9.41-10.37-9.41h-9.94v18.81h9.94Z" style="stroke-width:0px;"/><path d="M121.12,127.37h-27.99l-4.49,13.25h-19.13l27.14-75.02h21.16l27.14,75.02h-19.34l-4.49-13.25ZM107.12,85.8l-9.19,27.46h18.49l-9.3-27.46Z" style="stroke-width:0px;"/><path d="M158.25,65.61h18.27v44.88c0,8.87,4.38,14,13.03,14s13.25-5.13,13.25-14v-44.88h18.27v44.77c0,20.74-14.53,30.99-31.85,30.99s-30.99-10.26-30.99-30.99v-44.77Z" style="stroke-width:0px;"/><path d="M257.57,107.49v33.13h-18.28v-75.02h18.28v32.91l25-32.91h21.48l-29.07,36.76,30.14,38.26h-22.34l-25.22-33.13Z" style="stroke-width:0px;"/><path d="M346.3,141.37c-16.14,0-28.75-8.01-29.28-23.19h19.45c.53,5.77,4.17,8.54,9.29,8.54s8.77-2.67,8.77-7.05c0-13.9-37.51-6.41-37.3-33.02,0-14.21,11.65-22.12,27.36-22.12s27.36,8.12,28.11,22.44h-19.77c-.32-4.81-3.74-7.69-8.65-7.81-4.39-.1-7.7,2.14-7.7,6.84,0,13.04,37.09,7.16,37.09,32.27,0,12.61-9.83,23.09-27.36,23.09Z" style="stroke-width:0px;"/><path d="M386.21,65.61h58.02v14.64h-19.87v60.38h-18.27v-60.38h-19.87v-14.64Z" style="stroke-width:0px;"/><path d="M505.5,127.37h-27.99l-4.49,13.25h-19.13l27.14-75.02h21.16l27.14,75.02h-19.34l-4.49-13.25ZM491.5,85.8l-9.19,27.46h18.49l-9.3-27.46Z" style="stroke-width:0px;"/><path d="M610.39,103.11c0,22.23-15.39,37.51-39.33,37.51h-28.11v-75.02h28.11c23.94,0,39.33,15.17,39.33,37.5ZM569.88,124.8c13.79,0,21.91-7.9,21.91-21.69s-8.12-21.9-21.91-21.9h-8.65v43.59h8.65Z" style="stroke-width:0px;"/><path d="M621.98,65.61h58.02v14.64h-19.87v60.38h-18.27v-60.38h-19.87v-14.64Z" style="stroke-width:0px;"/><path d="M12.93,37.77H0V.43h12.56c7.86,0,11.6,4.17,11.6,9.4,0,4.92-3.11,7.65-6.68,8.66,4.17.75,7.54,4.59,7.54,9.3,0,5.6-4.22,9.99-12.08,9.99ZM12.29,3.58H3.74v13.36h8.71c5.07,0,7.91-2.57,7.91-6.73s-2.67-6.62-8.08-6.62ZM12.5,20.03H3.74v14.59h8.92c5.4,0,8.61-2.72,8.61-7.21s-3.42-7.38-8.76-7.38Z" style="stroke-width:0px;"/><path d="M64.24,28.91h-16.99l-3.25,8.87h-3.95L53.66.9h4.22l13.57,36.87h-3.95l-3.26-8.87ZM55.75,5.6l-7.38,20.2h14.75l-7.37-20.2Z" style="stroke-width:0px;"/><path d="M88,.43h3.74v23.51c0,7.74,4.05,10.89,9.88,10.89s9.77-3.15,9.77-10.89V.43h3.74v23.45c0,9.88-5.98,14.27-13.57,14.27s-13.57-4.39-13.57-14.27V.43Z" style="stroke-width:0px;"/><path d="M145.52,38.15c-7.48,0-12.4-4.27-12.61-9.99h3.95c.32,3.1,2.62,6.84,8.66,6.84,5.19,0,8.23-3.05,8.23-6.89,0-11.01-20.52-4.06-20.52-18.12,0-5.77,4.75-9.99,11.96-9.99s11.38,3.95,12.03,9.08h-4.06c-.43-2.61-2.94-5.82-8.12-5.87-4.39-.05-8.01,2.35-8.01,6.68,0,10.79,20.52,4.17,20.52,18.06,0,5.07-4.12,10.21-12.03,10.21Z" style="stroke-width:0px;"/><path d="M197.1,28.91h-16.99l-3.25,8.87h-3.95L186.52.9h4.22l13.57,36.87h-3.95l-3.26-8.87ZM188.61,5.6l-7.38,20.2h14.75l-7.37-20.2Z" style="stroke-width:0px;"/><path d="M249.17.43v37.35h-3.73l-20.68-31.42v31.42h-3.74V.43h3.74l20.68,31.36V.43h3.73Z" style="stroke-width:0px;"/><path d="M268.37.43h3.74v37.35h-3.74V.43Z" style="stroke-width:0px;"/><path d="M310.82,3.47h-15.77v13.94h14.16v3.11h-14.16v14.16h15.77v3.1h-19.51V.37h19.51v3.1Z" style="stroke-width:0px;"/><path d="M340.12.43c8.66,0,12.71,4.7,12.71,10.84,0,5.13-2.88,9.46-9.19,10.63l9.62,15.87h-4.48l-9.25-15.6h-6.89v15.6h-3.74V.43h11.22ZM340.12,3.58h-7.48v15.55h7.54c6.09,0,8.81-3.32,8.81-7.86s-2.57-7.69-8.87-7.69Z" style="stroke-width:0px;"/><path d="M370.81.43h3.74v23.51c0,7.74,4.05,10.89,9.88,10.89s9.77-3.15,9.77-10.89V.43h3.74v23.45c0,9.88-5.98,14.27-13.57,14.27s-13.57-4.39-13.57-14.27V.43Z" style="stroke-width:0px;"/><path d="M445.15.43v37.35h-3.73l-20.68-31.42v31.42h-3.74V.43h3.74l20.68,31.36V.43h3.73Z" style="stroke-width:0px;"/><path d="M498.14,11.32h-4.38c-2.09-4.8-6.63-7.9-12.62-7.9-8.28,0-14.64,5.98-14.64,15.65s6.36,15.71,14.64,15.71,13.63-5.29,14.22-13.78h-15.71v-3.05h19.67v2.72c-.58,9.88-7.96,17.47-18.17,17.47s-18.48-7.86-18.48-19.07S470.68,0,481.14,0c8.02,0,14.32,4.22,16.99,11.32Z" style="stroke-width:0px;"/></g></svg>